<svg xmlns="http://www.w3.org/2000/svg" viewBox="0 0 512 512"><path id="Forma_1" fill-rule="evenodd" class="shp0" d="M366.2 12.81C383.88 12.76 401.4 16.19 417.76 22.89C434.12 29.6 449 39.45 461.57 51.9C474.13 64.34 484.12 79.13 490.98 95.43C497.85 111.72 501.44 129.21 501.56 146.89L501.56 364.81C501.46 382.5 497.88 400 491.03 416.32C484.18 432.63 474.19 447.44 461.62 459.9C449.06 472.36 434.17 482.23 417.8 488.95C401.43 495.66 383.89 499.09 366.2 499.05L146.36 499.05C128.68 499.09 111.17 495.65 94.82 488.93C78.47 482.21 63.6 472.34 51.06 459.87C38.52 447.41 28.56 432.6 21.74 416.29C14.92 399.98 11.38 382.49 11.32 364.81L11.32 147.05C11.38 129.37 14.92 111.88 21.74 95.57C28.56 79.26 38.52 64.45 51.06 51.98C63.6 39.52 78.47 29.65 94.82 22.93C111.17 16.2 128.68 12.77 146.36 12.81L366.2 12.81ZM458.04 147.05C457.97 135.04 455.54 123.17 450.89 112.1C446.24 101.04 439.46 90.99 430.94 82.54C422.41 74.09 412.31 67.39 401.2 62.83C390.1 58.28 378.2 55.95 366.2 55.98L146.36 55.98C134.37 55.95 122.5 58.29 111.41 62.85C100.32 67.41 90.25 74.11 81.75 82.57C73.25 91.02 66.5 101.07 61.88 112.13C57.27 123.2 54.87 135.06 54.84 147.05L54.84 364.97C54.87 376.96 57.27 388.82 61.88 399.88C66.5 410.95 73.25 420.99 81.75 429.45C90.25 437.91 100.32 444.61 111.41 449.17C122.5 453.73 134.37 456.07 146.36 456.04L366.2 456.04C378.2 456.07 390.1 453.74 401.2 449.18C412.31 444.63 422.41 437.93 430.94 429.48C439.46 421.03 446.24 410.98 450.89 399.91C455.54 388.85 457.97 376.97 458.04 364.97L458.04 147.05ZM256.44 130.66C272.97 130.61 289.34 133.81 304.63 140.07C319.92 146.34 333.83 155.55 345.57 167.19C357.3 178.83 366.63 192.66 373.03 207.9C379.42 223.13 382.76 239.48 382.84 256.01C382.84 306.61 352.41 352.25 305.7 371.71C259 391.17 205.17 380.64 169.24 345.01C133.31 309.38 122.32 255.64 141.39 208.77C160.46 161.9 205.84 131.09 256.44 130.66ZM256.44 338.15C267.27 338.19 278.01 336.1 288.03 331.99C298.06 327.89 307.18 321.85 314.87 314.22C322.56 306.6 328.68 297.53 332.88 287.54C337.07 277.56 339.26 266.84 339.32 256.01C339.33 222.83 319.39 192.9 288.77 180.13C258.15 167.36 222.86 174.26 199.3 197.61C175.73 220.97 168.52 256.2 181.02 286.93C193.52 317.66 223.27 337.87 256.44 338.15ZM387.96 94.06C390.06 94.07 392.15 94.28 394.2 94.69C396.26 95.1 398.27 95.7 400.21 96.49C402.15 97.28 404.01 98.26 405.77 99.4C407.53 100.54 409.17 101.85 410.68 103.3C413.63 106.24 415.96 109.74 417.56 113.58C419.15 117.42 419.97 121.54 419.97 125.7C419.97 129.87 419.15 133.99 417.56 137.83C415.96 141.67 413.63 145.16 410.68 148.1C409.17 149.56 407.53 150.87 405.77 152.01C404.01 153.16 402.15 154.13 400.21 154.92C398.27 155.72 396.26 156.32 394.2 156.74C392.15 157.15 390.06 157.37 387.96 157.38C385.89 157.38 383.82 157.16 381.78 156.76C379.75 156.35 377.76 155.74 375.85 154.95C373.93 154.15 372.1 153.18 370.37 152.03C368.64 150.88 367.03 149.56 365.56 148.1C362.52 145.22 360.11 141.74 358.45 137.89C356.8 134.04 355.95 129.89 355.95 125.7C355.95 121.51 356.8 117.37 358.45 113.52C360.11 109.67 362.52 106.19 365.56 103.3C367.03 101.84 368.64 100.52 370.36 99.37C372.09 98.22 373.92 97.25 375.84 96.46C377.76 95.66 379.75 95.06 381.78 94.66C383.82 94.26 385.89 94.05 387.96 94.06Z" /></svg>