<svg xmlns="http://www.w3.org/2000/svg" viewBox="0 0 512 512"><path id="Forma_1" fill-rule="evenodd" class="shp0" d="M6.49 168.29L112.98 168.29L112.98 481.75L6.49 481.75L6.49 168.29ZM462.17 196.9C468.16 204.18 473.46 212.01 477.99 220.29C482.51 228.57 486.24 237.26 489.13 246.24C492.01 255.23 494.04 264.46 495.19 273.83C496.33 283.19 496.59 292.64 495.96 302.06L495.96 481.75L389.8 481.75L389.8 314.08C390.06 309.53 389.97 304.98 389.53 300.45C389.09 295.92 388.3 291.44 387.18 287.03C386.05 282.62 384.58 278.31 382.79 274.12C381.01 269.94 378.9 265.9 376.49 262.04C374.2 258.88 371.52 256.02 368.51 253.54C365.5 251.06 362.18 248.97 358.64 247.33C355.1 245.69 351.36 244.51 347.52 243.82C343.68 243.13 339.76 242.93 335.87 243.23C332.83 243.12 329.78 243.28 326.76 243.7C323.74 244.12 320.76 244.8 317.86 245.72C314.95 246.65 312.13 247.83 309.43 249.24C306.73 250.66 304.16 252.3 301.74 254.16C299.48 255.92 297.35 257.82 295.34 259.86C293.33 261.89 291.46 264.06 289.73 266.34C288 268.62 286.43 271.01 285.01 273.49C283.59 275.98 282.34 278.55 281.26 281.2C280.61 283.26 280.05 285.35 279.58 287.46C279.11 289.58 278.73 291.71 278.44 293.85C278.16 296 277.96 298.15 277.86 300.32C277.76 302.48 277.76 304.64 277.85 306.8L277.85 481.68L171.69 481.68C171.92 397.62 172.03 329.42 172.03 277.07L172.03 183.45L171.69 168.29L277.85 168.29L277.85 212.78C278.78 211.32 279.73 209.87 280.71 208.45C281.69 207.02 282.69 205.61 283.72 204.21C284.74 202.82 285.79 201.44 286.86 200.08C287.93 198.71 289.02 197.37 290.13 196.05C291.55 194.54 292.99 193.07 294.47 191.64C295.95 190.2 297.46 188.79 298.99 187.42C300.53 186.05 302.1 184.71 303.7 183.4C305.29 182.09 306.91 180.82 308.57 179.59C310.66 178.03 312.83 176.57 315.06 175.21C317.29 173.85 319.58 172.6 321.92 171.45C324.27 170.31 326.67 169.27 329.11 168.35C331.55 167.43 334.04 166.62 336.55 165.93C339.55 165.09 342.57 164.35 345.62 163.72C348.66 163.09 351.73 162.57 354.81 162.16C357.89 161.75 360.99 161.45 364.09 161.26C367.2 161.07 370.31 160.99 373.42 161.01C381.64 160.66 389.88 161.18 398 162.58C406.11 163.97 414.05 166.23 421.69 169.32C429.32 172.41 436.6 176.3 443.41 180.94C450.21 185.57 456.5 190.92 462.17 196.9ZM72.01 17.97C75.85 18.54 79.62 19.49 83.28 20.79C86.93 22.1 90.44 23.77 93.77 25.77C97.09 27.77 100.21 30.09 103.08 32.71C105.74 35.16 108.14 37.88 110.22 40.84C112.3 43.8 114.06 46.97 115.47 50.31C116.88 53.64 117.93 57.11 118.6 60.67C119.27 64.22 119.56 67.84 119.47 71.46C119.62 75.05 119.38 78.66 118.75 82.2C118.12 85.74 117.11 89.21 115.72 92.53C114.34 95.85 112.6 99.01 110.53 101.96C108.46 104.9 106.08 107.61 103.42 110.04C100.46 112.67 97.25 115.01 93.84 117.03C90.42 119.04 86.83 120.73 83.09 122.05C79.35 123.38 75.5 124.34 71.58 124.92C67.66 125.51 63.69 125.72 59.73 125.54L59.05 125.54C55.17 125.73 51.28 125.54 47.43 124.96C43.59 124.38 39.81 123.42 36.16 122.09C32.5 120.76 28.99 119.08 25.67 117.05C22.35 115.03 19.24 112.68 16.38 110.04C11.27 104.97 7.23 98.94 4.47 92.29C1.72 85.64 0.32 78.51 0.35 71.32C0.38 64.12 1.85 57 4.66 50.38C7.47 43.76 11.57 37.76 16.73 32.74C19.7 30.13 22.92 27.82 26.34 25.82C29.76 23.83 33.36 22.16 37.09 20.85C40.82 19.54 44.67 18.59 48.59 18.02C52.5 17.44 56.46 17.23 60.42 17.41C64.29 17.21 68.18 17.4 72.01 17.97Z" /></svg>